<svg width="1440" height="362" viewBox="0 0 1440 362" fill="none" xmlns="http://www.w3.org/2000/svg">
<rect x="1440" y="362" width="1440" height="308" transform="rotate(-180 1440 362)" fill="#0D7EB7"/>
<rect x="27" y="54" width="27" height="28" transform="rotate(-180 27 54)" fill="#0D7EB7"/>
<rect x="27" y="109" width="27" height="28" transform="rotate(-180 27 109)" fill="#1A90CC"/>
<rect x="208" y="134" width="28" height="27" transform="rotate(-180 208 134)" fill="#1A90CC"/>
<rect x="1299" y="29" width="28" height="27" fill="#1A90CC"/>
<rect x="435" y="54" width="27" height="27" transform="rotate(90 435 54)" fill="#0D7EB7"/>
<rect x="1072" y="109" width="27" height="27" transform="rotate(-90 1072 109)" fill="#0D7EB7"/>
<rect x="947" y="27" width="27" height="28" transform="rotate(90 947 27)" fill="#0D7EB7"/>
<rect x="435" y="81" width="28" height="27" transform="rotate(90 435 81)" fill="#156F9C"/>
<rect x="1072" y="82" width="28" height="27" transform="rotate(-90 1072 82)" fill="#156F9C"/>
<rect x="561" y="54" width="27" height="27" transform="rotate(90 561 54)" fill="#156F9C"/>
<rect x="1072" y="27" width="27" height="27" transform="rotate(90 1072 27)" fill="#156F9C"/>
<rect x="534" y="81" width="28" height="27" transform="rotate(90 534 81)" fill="#0088CC"/>
<rect x="675" y="52" width="27" height="27" transform="rotate(90 675 52)" fill="#0D7EB7"/>
<rect x="758" y="79" width="28" height="27" transform="rotate(90 758 79)" fill="#1D92CD"/>
<rect x="786" y="107" width="27" height="28" transform="rotate(90 786 107)" fill="#1D92CD"/>
<rect x="872" y="79" width="28" height="28" transform="rotate(90 872 79)" fill="#1D92CD"/>
<rect x="872" y="52" width="27" height="28" transform="rotate(90 872 52)" fill="#006192"/>
<rect x="648" y="52" width="27" height="28" transform="rotate(90 648 52)" fill="#0D7EB7"/>
<rect x="534" y="54" width="27" height="72" transform="rotate(90 534 54)" fill="#0D7EB7"/>
<rect x="1045" y="27" width="27" height="72" transform="rotate(90 1045 27)" fill="#0D7EB7"/>
<rect x="263" y="81" width="28" height="28" transform="rotate(90 263 81)" fill="#2591C7"/>
<rect x="1244" y="82" width="28" height="28" transform="rotate(-90 1244 82)" fill="#2591C7"/>
<rect x="27" y="26" width="27" height="26" transform="rotate(-180 27 26)" fill="#005078"/>
<rect x="54" y="26" width="27" height="26" transform="rotate(-180 54 26)" fill="#005078"/>
<rect x="54" y="54" width="27" height="28" transform="rotate(-180 54 54)" fill="#005078"/>
<rect x="82" y="109" width="28" height="28" transform="rotate(-180 82 109)" fill="#2A8FC1"/>
<rect x="27" y="81" width="27" height="27" transform="rotate(-180 27 81)" fill="#2A8FC1"/>
<rect x="54" y="109" width="27" height="28" transform="rotate(-180 54 109)" fill="#0D7EB7"/>
<rect x="54" y="134" width="27" height="27" transform="rotate(-180 54 134)" fill="#1990CC"/>
<rect x="1244" y="136" width="27" height="27" transform="rotate(-180 1244 136)" fill="#1990CC"/>
<rect x="27" y="161" width="27" height="27" transform="rotate(-180 27 161)" fill="#2A8FC1"/>
<rect x="370" y="81" width="261" height="27" transform="rotate(-180 370 81)" fill="#0D7EB7"/>
<rect x="1137" y="82" width="261" height="27" fill="#0D7EB7"/>
<rect x="872" y="54" width="252" height="27" transform="rotate(-180 872 54)" fill="#0D7EB7"/>
<rect x="317" y="54" width="27" height="27" transform="rotate(90 317 54)" fill="#081C26"/>
<rect x="1190" y="109" width="27" height="27" transform="rotate(-90 1190 109)" fill="#081C26"/>
<rect x="828" y="27" width="27" height="27" transform="rotate(90 828 27)" fill="#081C26"/>
<rect x="343" y="54" width="27" height="26" transform="rotate(90 343 54)" fill="#081C26"/>
<rect x="1164" y="109" width="27" height="26" transform="rotate(-90 1164 109)" fill="#081C26"/>
<rect x="844" y="27" width="27" height="26" transform="rotate(90 844 27)" fill="#081C26"/>
<rect x="370" y="81" width="28" height="53" transform="rotate(90 370 81)" fill="#081C26"/>
<rect x="1137" y="82" width="28" height="53" transform="rotate(-90 1137 82)" fill="#081C26"/>
<rect x="290" y="54" width="27" height="27" transform="rotate(90 290 54)" fill="#0E4967"/>
<rect x="1217" y="109" width="27" height="27" transform="rotate(-90 1217 109)" fill="#0E4967"/>
<rect x="801" y="27" width="27" height="27" transform="rotate(90 801 27)" fill="#0E4967"/>
<rect x="370" y="54" width="27" height="27" transform="rotate(90 370 54)" fill="#0E4967"/>
<rect x="1137" y="109" width="27" height="27" transform="rotate(-90 1137 109)" fill="#0E4967"/>
<rect x="872" y="27" width="27" height="28" transform="rotate(90 872 27)" fill="#0E4967"/>
<rect x="176" y="54" width="27" height="28" transform="rotate(90 176 54)" fill="#156F9C"/>
<rect x="1331" y="109" width="27" height="28" transform="rotate(-90 1331 109)" fill="#156F9C"/>
<rect x="82" y="54" width="27" height="28" transform="rotate(90 82 54)" fill="#156F9C"/>
<rect x="54" y="54" width="27" height="27" transform="rotate(90 54 54)" fill="#0D7EB7"/>
<rect x="235" y="107" width="27" height="27" transform="rotate(90 235 107)" fill="#2A8FC1"/>
<rect x="1272" y="56" width="27" height="27" transform="rotate(-90 1272 56)" fill="#2A8FC1"/>
<rect x="82" y="26" width="28" height="28" transform="rotate(90 82 26)" fill="#156F9C"/>
<rect x="109" width="26" height="27" transform="rotate(90 109 0)" fill="#156F9C"/>
<rect x="235" y="54" width="27" height="59" transform="rotate(90 235 54)" fill="#0D7EB7"/>
<rect x="1272" y="109" width="27" height="59" transform="rotate(-90 1272 109)" fill="#0D7EB7"/>
<rect x="746" y="27" width="27" height="59" transform="rotate(90 746 27)" fill="#0D7EB7"/>
</svg>
