<svg width="1440" height="955" viewBox="0 0 1440 955" fill="none" xmlns="http://www.w3.org/2000/svg">
<rect width="1440" height="873" fill="#0D7EB7"/>
<rect x="1413" y="873" width="27" height="28" fill="#0D7EB7"/>
<rect x="1413" y="818" width="27" height="28" fill="#1A90CC"/>
<rect x="1232" y="793" width="28" height="27" fill="#1A90CC"/>
<rect x="141" y="898" width="28" height="27" transform="rotate(180 141 898)" fill="#1A90CC"/>
<rect x="1005" y="873" width="27" height="27" transform="rotate(-90 1005 873)" fill="#0D7EB7"/>
<rect x="368" y="818" width="27" height="27" transform="rotate(90 368 818)" fill="#0D7EB7"/>
<rect x="493" y="900" width="27" height="28" transform="rotate(-90 493 900)" fill="#0D7EB7"/>
<rect x="1005" y="846" width="28" height="27" transform="rotate(-90 1005 846)" fill="#156F9C"/>
<rect x="368" y="845" width="28" height="27" transform="rotate(90 368 845)" fill="#156F9C"/>
<rect x="879" y="873" width="27" height="27" transform="rotate(-90 879 873)" fill="#156F9C"/>
<rect x="368" y="900" width="27" height="27" transform="rotate(-90 368 900)" fill="#156F9C"/>
<rect x="906" y="846" width="28" height="27" transform="rotate(-90 906 846)" fill="#0088CC"/>
<rect x="765" y="875" width="27" height="27" transform="rotate(-90 765 875)" fill="#0D7EB7"/>
<rect x="682" y="848" width="28" height="27" transform="rotate(-90 682 848)" fill="#1D92CD"/>
<rect x="654" y="820" width="27" height="28" transform="rotate(-90 654 820)" fill="#1D92CD"/>
<rect x="568" y="848" width="28" height="28" transform="rotate(-90 568 848)" fill="#1D92CD"/>
<rect x="568" y="875" width="27" height="28" transform="rotate(-90 568 875)" fill="#006192"/>
<rect x="792" y="875" width="27" height="28" transform="rotate(-90 792 875)" fill="#0D7EB7"/>
<rect x="906" y="873" width="27" height="72" transform="rotate(-90 906 873)" fill="#0D7EB7"/>
<rect x="395" y="900" width="27" height="72" transform="rotate(-90 395 900)" fill="#0D7EB7"/>
<rect x="1177" y="846" width="28" height="28" transform="rotate(-90 1177 846)" fill="#2591C7"/>
<rect x="196" y="845" width="28" height="28" transform="rotate(90 196 845)" fill="#2591C7"/>
<rect x="1413" y="901" width="27" height="26" fill="#005078"/>
<rect x="1413" y="927" width="27" height="28" fill="#005078"/>
<rect x="1386" y="901" width="27" height="26" fill="#005078"/>
<rect x="1386" y="873" width="27" height="28" fill="#005078"/>
<rect x="1358" y="818" width="28" height="28" fill="#2A8FC1"/>
<rect x="1413" y="846" width="27" height="27" fill="#2A8FC1"/>
<rect x="1386" y="818" width="27" height="28" fill="#0D7EB7"/>
<rect x="1386" y="793" width="27" height="27" fill="#1990CC"/>
<rect x="196" y="791" width="27" height="27" fill="#1990CC"/>
<rect x="1413" y="766" width="27" height="27" fill="#2A8FC1"/>
<rect x="1070" y="846" width="261" height="27" fill="#0D7EB7"/>
<rect x="263" y="845" width="261" height="27" transform="rotate(180 263 845)" fill="#0D7EB7"/>
<rect x="568" y="873" width="252" height="27" fill="#0D7EB7"/>
<rect x="1123" y="873" width="27" height="27" transform="rotate(-90 1123 873)" fill="#081C26"/>
<rect x="250" y="818" width="27" height="27" transform="rotate(90 250 818)" fill="#081C26"/>
<rect x="612" y="900" width="27" height="27" transform="rotate(-90 612 900)" fill="#081C26"/>
<rect x="1097" y="873" width="27" height="26" transform="rotate(-90 1097 873)" fill="#081C26"/>
<rect x="276" y="818" width="27" height="26" transform="rotate(90 276 818)" fill="#081C26"/>
<rect x="596" y="900" width="27" height="26" transform="rotate(-90 596 900)" fill="#081C26"/>
<rect x="1070" y="846" width="28" height="53" transform="rotate(-90 1070 846)" fill="#081C26"/>
<rect x="303" y="845" width="28" height="53" transform="rotate(90 303 845)" fill="#081C26"/>
<rect x="1150" y="873" width="27" height="27" transform="rotate(-90 1150 873)" fill="#0E4967"/>
<rect x="223" y="818" width="27" height="27" transform="rotate(90 223 818)" fill="#0E4967"/>
<rect x="639" y="900" width="27" height="27" transform="rotate(-90 639 900)" fill="#0E4967"/>
<rect x="1070" y="873" width="27" height="27" transform="rotate(-90 1070 873)" fill="#0E4967"/>
<rect x="303" y="818" width="27" height="27" transform="rotate(90 303 818)" fill="#0E4967"/>
<rect x="568" y="900" width="27" height="28" transform="rotate(-90 568 900)" fill="#0E4967"/>
<rect x="1264" y="873" width="27" height="28" transform="rotate(-90 1264 873)" fill="#156F9C"/>
<rect x="109" y="818" width="27" height="28" transform="rotate(90 109 818)" fill="#156F9C"/>
<rect x="1358" y="873" width="27" height="28" transform="rotate(-90 1358 873)" fill="#156F9C"/>
<rect x="1386" y="873" width="27" height="27" transform="rotate(-90 1386 873)" fill="#0D7EB7"/>
<rect x="1205" y="820" width="27" height="27" transform="rotate(-90 1205 820)" fill="#2A8FC1"/>
<rect x="168" y="871" width="27" height="27" transform="rotate(90 168 871)" fill="#2A8FC1"/>
<rect x="1358" y="901" width="28" height="28" transform="rotate(-90 1358 901)" fill="#156F9C"/>
<rect x="1331" y="927" width="26" height="27" transform="rotate(-90 1331 927)" fill="#156F9C"/>
<rect x="1205" y="873" width="27" height="59" transform="rotate(-90 1205 873)" fill="#0D7EB7"/>
<rect x="168" y="818" width="27" height="59" transform="rotate(90 168 818)" fill="#0D7EB7"/>
<rect x="694" y="900" width="27" height="59" transform="rotate(-90 694 900)" fill="#0D7EB7"/>
</svg>
